<?xml version="1.0" encoding="UTF-8"?>
<svg width="64px" height="64px" viewBox="0 0 64 64" version="1.1" xmlns="http://www.w3.org/2000/svg" xmlns:xlink="http://www.w3.org/1999/xlink">
    <!-- Generator: Sketch 48.2 (47327) - http://www.bohemiancoding.com/sketch -->
    <title>User</title>
    <desc>Created with Sketch.</desc>
    <defs></defs>
    <g id="Symbols" stroke="none" stroke-width="1" fill="none" fill-rule="evenodd">
        <g id="User" fill="#FFFFFF">
            <g id="Group" transform="translate(2.000000, 5.000000)">
                <path d="M4,52.179022 C4,48.679022 8,48.679022 23,42.179022 C23.442546,41.987252 25,38.679022 23.5,37.179022 C22,35.679022 20,32.4766164 19,29.2848257 C18.7594394,28.5170065 18,28.7848257 18,27.2848257 C18,25.7848257 16.5,20.679022 17.5,20.679022 C18.1666667,20.679022 18.6666667,19.679022 19,17.679022 C19.3333333,10.0123553 21.1666667,6.0123553 24.5,5.67902197 C29.5,5.17902197 29.25,2.78482568 37,4.78482568 C44.75,6.78482568 42.5,9.78482568 42.5,10.2848257 C42.5,10.7848257 45.5,13.2848257 45,14.2848257 C44.5,15.2848257 44.5,16.7848257 44.5,17.7848257 C44.5,18.7848257 45.9416084,22.2682097 44,28.0930349 C42,34.0930349 37.5,36.7848257 37.5,38.7848257 C37.5,40.7848257 37,41.179022 38,43.179022 C39,45.179022 52,47.179022 54.5,52.179022 C54.5,52.679022 4,52.179022 4,52.179022 Z" id="Path-4-Copy" stroke="#000000"></path>
                <path d="M11.4,41.1879509 C2.97391304,46.7540005 9.97212394e-17,52.3200502 0,54.1754001 C0,55.4123 19,55.2576875 57,53.7115626 C56.3391304,48.7639629 54.026087,44.5894257 50.0608696,41.1879509 C44.1130435,36.0857387 19.826087,35.6219013 11.4,41.1879509 Z" id="Path-4" stroke="#979797"></path>
                <path d="M11.8,41.2227477 C7.13333333,22.8894144 8.3,10.8894144 15.3,5.22274774 C25.8,-3.27725226 42.8,-0.277252257 48.8,6.22274774 C54.8,12.7227477 55.8,21.7227477 49.8,41.2227477 C49.8,41.2227477 37.1333333,41.2227477 11.8,41.2227477 Z M13.75,14.8568876 C11.4166667,15.8568876 11.4166667,21.1902209 13.75,30.8568876 L48.75,31.3568876 C51.0833333,23.0235543 51.4166667,17.6902209 49.75,15.3568876 C40.8651712,11.1683254 23.2095038,10.7840457 13.75,14.8568876 Z" id="Combined-Shape" stroke="#979797"></path>
            </g>
        </g>
    </g>
</svg>