<?xml version="1.0" encoding="UTF-8"?>
<svg width="88px" height="56px" viewBox="0 0 88 56" version="1.1" xmlns="http://www.w3.org/2000/svg" xmlns:xlink="http://www.w3.org/1999/xlink">
    <!-- Generator: Sketch 48.2 (47327) - http://www.bohemiancoding.com/sketch -->
    <title>visa_accepted</title>
    <desc>Created with Sketch.</desc>
    <defs>
        <rect id="path-1" x="0" y="0" width="83" height="46" rx="4"></rect>
        <rect id="path-2" x="8.5" y="12" width="16.5" height="15.5" rx="2.4"></rect>
        <path d="M19.5,15.5 L23,15.5 L23,18 L19.5,18 L19.5,24 L14,24 L14,15.5 L19.5,15.5 Z" id="path-3"></path>
    </defs>
    <g id="Symbols" stroke="none" stroke-width="1" fill="none" fill-rule="evenodd">
        <g id="visa_accepted">
            <g id="Group-4" transform="translate(2.000000, 2.000000)">
                <g id="Rectangle">
                    <use fill="#D8D8D8" fill-rule="evenodd" xlink:href="#path-1"></use>
                    <rect stroke="#031D44" stroke-width="2.5" x="1.25" y="1.25" width="80.5" height="43.5" rx="4"></rect>
                </g>
                <g id="Rectangle-8">
                    <use fill="#9E8A4A" fill-rule="evenodd" xlink:href="#path-2"></use>
                    <rect stroke="#979797" stroke-width="0.5" x="8.75" y="12.25" width="16" height="15" rx="2.4"></rect>
                </g>
                <ellipse id="Oval" stroke="#7E724B" stroke-width="0.5" stroke-dasharray="1" cx="16.5" cy="19.75" rx="7.5" ry="7.25"></ellipse>
                <path d="M12.8704012,27 C11.0799298,26.0695989 9.68632057,24.5126502 9,22.630711 L9,17.3077055 C9.81952433,15.0605121 11.6475264,13.2767022 13.9554842,12.469697 L19.5122577,12.469697 C21.8202155,13.2767022 23.6482176,15.0605121 24.4677419,17.3077055 L24.4677419,22.630711 C23.7814214,24.5126502 22.3878122,26.0695989 20.5973408,27 L12.8704012,27 Z" id="Combined-Shape" stroke="#7E724B" stroke-width="0.5" stroke-dasharray="1"></path>
                <ellipse id="Oval-Copy" stroke="#7E724B" stroke-width="0.5" stroke-dasharray="1" cx="16.5" cy="19.75" rx="6.5" ry="6.25"></ellipse>
                <ellipse id="Oval-Copy-2" stroke="#7E724B" stroke-width="0.5" stroke-dasharray="1" cx="16.5" cy="19.75" rx="5.5" ry="5.25"></ellipse>
                <path d="M10.9070076,32 C11.8282625,32 12.3140151,32.7653631 12.3140151,34 C12.3140151,35.2346369 11.8282625,36 10.9070076,36 C9.98575261,36 9.5,35.2346369 9.5,34 C9.5,32.7653631 9.98575261,32 10.9070076,32 Z M10.9070076,32.5363128 C10.3542546,32.5363128 10.0918365,33.0837989 10.0918365,34 C10.0918365,34.9162011 10.3542546,35.4636872 10.9070076,35.4636872 C11.4597605,35.4636872 11.7221786,34.9162011 11.7221786,34 C11.7221786,33.0837989 11.4597605,32.5363128 10.9070076,32.5363128 Z M14.3693907,32 C15.2906457,32 15.7763983,32.7653631 15.7763983,34 C15.7763983,35.2346369 15.2906457,36 14.3693907,36 C13.4481358,36 12.9623832,35.2346369 12.9623832,34 C12.9623832,32.7653631 13.4481358,32 14.3693907,32 Z M14.3693907,32.5363128 C13.8166378,32.5363128 13.5542197,33.0837989 13.5542197,34 C13.5542197,34.9162011 13.8166378,35.4636872 14.3693907,35.4636872 C14.9221437,35.4636872 15.1845618,34.9162011 15.1845618,34 C15.1845618,33.0837989 14.9221437,32.5363128 14.3693907,32.5363128 Z M17.8317739,32 C18.7530289,32 19.2387815,32.7653631 19.2387815,34 C19.2387815,35.2346369 18.7530289,36 17.8317739,36 C16.910519,36 16.4247664,35.2346369 16.4247664,34 C16.4247664,32.7653631 16.910519,32 17.8317739,32 Z M17.8317739,32.5363128 C17.2790209,32.5363128 17.0166029,33.0837989 17.0166029,34 C17.0166029,34.9162011 17.2790209,35.4636872 17.8317739,35.4636872 C18.3845269,35.4636872 18.646945,34.9162011 18.646945,34 C18.646945,33.0837989 18.3845269,32.5363128 17.8317739,32.5363128 Z M21.2941571,32 C22.215412,32 22.7011647,32.7653631 22.7011647,34 C22.7011647,35.2346369 22.215412,36 21.2941571,36 C20.3729022,36 19.8871495,35.2346369 19.8871495,34 C19.8871495,32.7653631 20.3729022,32 21.2941571,32 Z M21.2941571,32.5363128 C20.7414041,32.5363128 20.4789861,33.0837989 20.4789861,34 C20.4789861,34.9162011 20.7414041,35.4636872 21.2941571,35.4636872 C21.8469101,35.4636872 22.1093281,34.9162011 22.1093281,34 C22.1093281,33.0837989 21.8469101,32.5363128 21.2941571,32.5363128 Z M27.8399527,32 C28.7612076,32 29.2469602,32.7653631 29.2469602,34 C29.2469602,35.2346369 28.7612076,36 27.8399527,36 C26.9186977,36 26.4329451,35.2346369 26.4329451,34 C26.4329451,32.7653631 26.9186977,32 27.8399527,32 Z M27.8399527,32.5363128 C27.2871997,32.5363128 27.0247816,33.0837989 27.0247816,34 C27.0247816,34.9162011 27.2871997,35.4636872 27.8399527,35.4636872 C28.3927056,35.4636872 28.6551237,34.9162011 28.6551237,34 C28.6551237,33.0837989 28.3927056,32.5363128 27.8399527,32.5363128 Z M31.3023359,32 C32.2235908,32 32.7093434,32.7653631 32.7093434,34 C32.7093434,35.2346369 32.2235908,36 31.3023359,36 C30.3810809,36 29.8953283,35.2346369 29.8953283,34 C29.8953283,32.7653631 30.3810809,32 31.3023359,32 Z M31.3023359,32.5363128 C30.7495829,32.5363128 30.4871648,33.0837989 30.4871648,34 C30.4871648,34.9162011 30.7495829,35.4636872 31.3023359,35.4636872 C31.8550888,35.4636872 32.1175069,34.9162011 32.1175069,34 C32.1175069,33.0837989 31.8550888,32.5363128 31.3023359,32.5363128 Z M34.764719,32 C35.685974,32 36.1717266,32.7653631 36.1717266,34 C36.1717266,35.2346369 35.685974,36 34.764719,36 C33.8434641,36 33.3577115,35.2346369 33.3577115,34 C33.3577115,32.7653631 33.8434641,32 34.764719,32 Z M34.764719,32.5363128 C34.2119661,32.5363128 33.949548,33.0837989 33.949548,34 C33.949548,34.9162011 34.2119661,35.4636872 34.764719,35.4636872 C35.317472,35.4636872 35.5798901,34.9162011 35.5798901,34 C35.5798901,33.0837989 35.317472,32.5363128 34.764719,32.5363128 Z M38.2271022,32 C39.1483572,32 39.6341098,32.7653631 39.6341098,34 C39.6341098,35.2346369 39.1483572,36 38.2271022,36 C37.3058473,36 36.8200947,35.2346369 36.8200947,34 C36.8200947,32.7653631 37.3058473,32 38.2271022,32 Z M38.2271022,32.5363128 C37.6743492,32.5363128 37.4119312,33.0837989 37.4119312,34 C37.4119312,34.9162011 37.6743492,35.4636872 38.2271022,35.4636872 C38.7798552,35.4636872 39.0422733,34.9162011 39.0422733,34 C39.0422733,33.0837989 38.7798552,32.5363128 38.2271022,32.5363128 Z M44.7728978,32 C45.6941527,32 46.1799053,32.7653631 46.1799053,34 C46.1799053,35.2346369 45.6941527,36 44.7728978,36 C43.8516428,36 43.3658902,35.2346369 43.3658902,34 C43.3658902,32.7653631 43.8516428,32 44.7728978,32 Z M44.7728978,32.5363128 C44.2201448,32.5363128 43.9577267,33.0837989 43.9577267,34 C43.9577267,34.9162011 44.2201448,35.4636872 44.7728978,35.4636872 C45.3256508,35.4636872 45.5880688,34.9162011 45.5880688,34 C45.5880688,33.0837989 45.3256508,32.5363128 44.7728978,32.5363128 Z M48.235281,32 C49.1565359,32 49.6422885,32.7653631 49.6422885,34 C49.6422885,35.2346369 49.1565359,36 48.235281,36 C47.314026,36 46.8282734,35.2346369 46.8282734,34 C46.8282734,32.7653631 47.314026,32 48.235281,32 Z M48.235281,32.5363128 C47.682528,32.5363128 47.4201099,33.0837989 47.4201099,34 C47.4201099,34.9162011 47.682528,35.4636872 48.235281,35.4636872 C48.7880339,35.4636872 49.050452,34.9162011 49.050452,34 C49.050452,33.0837989 48.7880339,32.5363128 48.235281,32.5363128 Z M51.6976641,32 C52.6189191,32 53.1046717,32.7653631 53.1046717,34 C53.1046717,35.2346369 52.6189191,36 51.6976641,36 C50.7764092,36 50.2906566,35.2346369 50.2906566,34 C50.2906566,32.7653631 50.7764092,32 51.6976641,32 Z M51.6976641,32.5363128 C51.1449112,32.5363128 50.8824931,33.0837989 50.8824931,34 C50.8824931,34.9162011 51.1449112,35.4636872 51.6976641,35.4636872 C52.2504171,35.4636872 52.5128352,34.9162011 52.5128352,34 C52.5128352,33.0837989 52.2504171,32.5363128 51.6976641,32.5363128 Z M55.1600473,32 C56.0813023,32 56.5670549,32.7653631 56.5670549,34 C56.5670549,35.2346369 56.0813023,36 55.1600473,36 C54.2387924,36 53.7530398,35.2346369 53.7530398,34 C53.7530398,32.7653631 54.2387924,32 55.1600473,32 Z M55.1600473,32.5363128 C54.6072944,32.5363128 54.3448763,33.0837989 54.3448763,34 C54.3448763,34.9162011 54.6072944,35.4636872 55.1600473,35.4636872 C55.7128003,35.4636872 55.9752184,34.9162011 55.9752184,34 C55.9752184,33.0837989 55.7128003,32.5363128 55.1600473,32.5363128 Z M61.7058429,32 C62.6270978,32 63.1128505,32.7653631 63.1128505,34 C63.1128505,35.2346369 62.6270978,36 61.7058429,36 C60.784588,36 60.2988353,35.2346369 60.2988353,34 C60.2988353,32.7653631 60.784588,32 61.7058429,32 Z M61.7058429,32.5363128 C61.1530899,32.5363128 60.8906719,33.0837989 60.8906719,34 C60.8906719,34.9162011 61.1530899,35.4636872 61.7058429,35.4636872 C62.2585959,35.4636872 62.5210139,34.9162011 62.5210139,34 C62.5210139,33.0837989 62.2585959,32.5363128 61.7058429,32.5363128 Z M65.1682261,32 C66.089481,32 66.5752336,32.7653631 66.5752336,34 C66.5752336,35.2346369 66.089481,36 65.1682261,36 C64.2469711,36 63.7612185,35.2346369 63.7612185,34 C63.7612185,32.7653631 64.2469711,32 65.1682261,32 Z M65.1682261,32.5363128 C64.6154731,32.5363128 64.353055,33.0837989 64.353055,34 C64.353055,34.9162011 64.6154731,35.4636872 65.1682261,35.4636872 C65.7209791,35.4636872 65.9833971,34.9162011 65.9833971,34 C65.9833971,33.0837989 65.7209791,32.5363128 65.1682261,32.5363128 Z M68.6306093,32 C69.5518642,32 70.0376168,32.7653631 70.0376168,34 C70.0376168,35.2346369 69.5518642,36 68.6306093,36 C67.7093543,36 67.2236017,35.2346369 67.2236017,34 C67.2236017,32.7653631 67.7093543,32 68.6306093,32 Z M68.6306093,32.5363128 C68.0778563,32.5363128 67.8154382,33.0837989 67.8154382,34 C67.8154382,34.9162011 68.0778563,35.4636872 68.6306093,35.4636872 C69.1833622,35.4636872 69.4457803,34.9162011 69.4457803,34 C69.4457803,33.0837989 69.1833622,32.5363128 68.6306093,32.5363128 Z M72.0929924,32 C73.0142474,32 73.5,32.7653631 73.5,34 C73.5,35.2346369 73.0142474,36 72.0929924,36 C71.1717375,36 70.6859849,35.2346369 70.6859849,34 C70.6859849,32.7653631 71.1717375,32 72.0929924,32 Z M72.0929924,32.5363128 C71.5402395,32.5363128 71.2778214,33.0837989 71.2778214,34 C71.2778214,34.9162011 71.5402395,35.4636872 72.0929924,35.4636872 C72.6457454,35.4636872 72.9081635,34.9162011 72.9081635,34 C72.9081635,33.0837989 72.6457454,32.5363128 72.0929924,32.5363128 Z" id="0000-0000-0000-0000" fill="#031D44"></path>
                <rect id="Rectangle-9" fill="#CCBA81" x="10.5" y="15.5" width="4" height="2.5"></rect>
                <rect id="Rectangle-9-Copy" fill="#CCBA81" x="10.5" y="18.5" width="4" height="2.5"></rect>
                <rect id="Rectangle-9-Copy-4" fill="#CCBA81" x="19" y="18.5" width="4" height="2.5"></rect>
                <rect id="Rectangle-9-Copy-2" fill="#CCBA81" x="10.5" y="21.5" width="4" height="2.5"></rect>
                <rect id="Rectangle-9-Copy-5" fill="#CCBA81" x="19" y="21.5" width="4" height="2.5"></rect>
                <g id="Rectangle-4">
                    <use fill="#CCBA81" fill-rule="evenodd" xlink:href="#path-3"></use>
                    <path stroke="#A6A191" stroke-width="0.5" d="M19.75,18.25 L19.75,24.25 L13.75,24.25 L13.75,15.25 L23.25,15.25 L23.25,18.25 L19.75,18.25 Z"></path>
                </g>
                <path d="M22.75,12.75 L24.25,14.25" id="Line" stroke="#7E724B" stroke-width="0.5" stroke-linecap="square" stroke-dasharray="1"></path>
                <path d="M22.75,25.25 L24.25,26.75" id="Line-Copy-3" stroke="#7E724B" stroke-width="0.5" stroke-linecap="square" stroke-dasharray="1" transform="translate(23.500000, 26.000000) scale(1, -1) translate(-23.500000, -26.000000) "></path>
                <path d="M9.25,12.75 L10.75,14.25" id="Line-Copy-2" stroke="#7E724B" stroke-width="0.5" stroke-linecap="square" stroke-dasharray="1" transform="translate(10.000000, 13.500000) scale(-1, 1) translate(-10.000000, -13.500000) "></path>
                <path d="M9.25,25.25 L10.75,26.75" id="Line-Copy-4" stroke="#7E724B" stroke-width="0.5" stroke-linecap="square" stroke-dasharray="1" transform="translate(10.000000, 26.000000) scale(-1, -1) translate(-10.000000, -26.000000) "></path>
                <g id="checked" transform="translate(54.000000, 23.000000)">
                    <g id="Group-4" transform="translate(2.558824, 2.558824)">
                        <circle id="Oval-10" stroke="#B4D1FD" stroke-width="2" fill="#031D44" cx="12.3676471" cy="12.3676471" r="12.3676471"></circle>
                        <polygon id="V-Copy" stroke="#54D8B3" stroke-width="0.5" fill="#8CECD2" stroke-linecap="round" stroke-linejoin="round" points="12.1569061 18.2560009 10.791136 18.2560009 5.97058824 9.63479288 7.43568709 9.63479288 11.474021 15.9470165 16.4466659 6.82352941 17.9117647 6.82352941"></polygon>
                    </g>
                </g>
            </g>
        </g>
    </g>
</svg>